PathFileType	4	(X/Y/Z)	S:\OneDrive - The University of Tokyo\ìåëÂéˆã∆\ÉoÉCÉÅÉJ\ë™íË\hirabayashi_2\Trimmed\Trimmed_BarR20kg1.trc
DataRate	CameraRate	NumFrames	NumMarkers	Units	OrigDataRate	OrigDataStartFrame	OrigNumFrames
200.00	200.00	       24	12	mm	200.00	1	       313
Frame#	Time	BarR0			BarR50			BarR100			BarR130			BarR180			BarR230			BarL0			BarL50			BarL100			BarL130			BarL180			BarL230			
		X1	Y1	Z1	X2	Y2	Z2	X3	Y3	Z3	X4	Y4	Z4	X5	Y5	Z5	X6	Y6	Z6	X7	Y7	Z7	X8	Y8	Z8	X9	Y9	Z9	X10	Y10	Z10	X11	Y11	Z11	X12	Y12	Z12	

1	0.000	-576.35498	2754.92773	1664.23853	-603.87909	2305.66577	1657.82275	-637.91455	1851.84070	1654.51172	-660.49261	1349.60852	1654.42944	-689.75952	902.96936	1658.47974	-713.76855	455.07489	1664.12158	-1113.49023	2808.17847	1664.67261	-1140.76880	2356.52832	1667.96326	-1171.26196	1906.05884	1668.92615	-1198.97876	1404.29333	1669.28455	-1226.82288	952.63770	1668.39734	-1244.70947	506.47342	1667.66882	
2	0.005	-576.34906	2754.91528	1664.21875	-603.88062	2305.63672	1657.83008	-637.92401	1851.84106	1654.50610	-660.48608	1349.62708	1654.42883	-689.75854	902.97455	1658.46924	-713.76007	455.07382	1664.11133	-1113.52771	2808.14404	1664.64795	-1140.77478	2356.52808	1667.95203	-1171.26233	1906.01404	1668.92090	-1199.00623	1404.29761	1669.25391	-1226.61023	952.66711	1668.38660	-1244.70447	506.47794	1667.64526	
3	0.010	-576.33728	2754.89868	1664.21509	-603.87775	2305.64380	1657.80676	-637.87793	1851.83594	1654.49194	-660.49213	1349.60168	1654.42236	-689.74530	902.98450	1658.45898	-713.76257	455.08243	1664.10938	-1113.50610	2808.12793	1664.66833	-1140.77234	2356.51318	1667.94385	-1171.28064	1906.03223	1668.92529	-1198.99426	1404.28027	1669.24194	-1226.82593	952.62073	1668.41187	-1244.69238	506.45810	1667.64978	
4	0.015	-576.35577	2754.89209	1664.22351	-603.88080	2305.64038	1657.82910	-637.87036	1851.85498	1654.48474	-660.48059	1349.61768	1654.40991	-689.78143	902.98224	1658.46729	-713.76526	455.07547	1664.11609	-1113.50586	2808.15552	1664.66602	-1140.76099	2356.50488	1667.93286	-1171.27344	1906.03552	1668.91443	-1198.99414	1404.27576	1669.24927	-1226.82227	952.64233	1668.41504	-1244.71033	506.47186	1667.66125	
5	0.020	-576.35327	2754.88354	1664.24487	-603.88751	2305.64722	1657.82361	-637.93060	1851.79663	1654.50110	-660.47815	1349.60095	1654.42639	-689.77142	902.98462	1658.46155	-713.76624	455.06485	1664.11731	-1113.50427	2808.15649	1664.66199	-1140.77576	2356.52881	1667.94653	-1171.25269	1906.03149	1668.92053	-1199.00476	1404.29907	1669.25452	-1226.82617	952.64069	1668.41467	-1244.67957	506.42892	1667.66040	
6	0.025	-576.35022	2754.90479	1664.23669	-603.88843	2305.64063	1657.83203	-637.88934	1851.81311	1654.50195	-660.46478	1349.60815	1654.43298	-689.77380	902.98907	1658.48633	-713.77863	455.07544	1664.12000	-1113.51648	2808.16309	1664.66431	-1140.76245	2356.51123	1667.95679	-1171.25586	1906.03833	1668.93726	-1198.99707	1404.30151	1669.27649	-1226.82690	952.64038	1668.41296	-1244.69373	506.43106	1667.64294	
7	0.030	-576.34375	2754.90894	1664.23682	-603.86407	2305.63086	1657.82764	-637.89142	1851.81030	1654.49365	-660.49194	1349.59741	1654.41479	-689.77319	902.98553	1658.46338	-713.76642	455.07681	1664.11633	-1113.48035	2808.16699	1664.66174	-1140.76428	2356.52222	1667.94897	-1171.27441	1906.02612	1668.91736	-1198.99231	1404.29480	1669.25061	-1226.83472	952.62256	1668.40723	-1244.70105	506.44641	1667.66504	
8	0.035	-576.33820	2754.91626	1664.23499	-603.90039	2305.62305	1657.83167	-637.90924	1851.79773	1654.51025	-660.47644	1349.61609	1654.43201	-689.75439	903.00079	1658.45776	-713.75922	455.08548	1664.11316	-1113.50684	2808.17578	1664.67029	-1140.76965	2356.51172	1667.94153	-1171.27026	1906.04529	1668.92517	-1198.99622	1404.30627	1669.27197	-1226.82007	952.64154	1668.41162	-1244.69592	506.45844	1667.64758	
9	0.040	-576.34045	2754.88892	1664.22388	-603.88464	2305.61938	1657.80811	-637.91382	1851.81128	1654.49402	-660.47845	1349.59229	1654.42957	-689.76294	902.98785	1658.47766	-713.78192	455.08041	1664.11426	-1113.51709	2808.14087	1664.64490	-1140.77515	2356.50610	1667.93640	-1171.28027	1906.04944	1668.91504	-1198.98767	1404.29285	1669.25427	-1226.81995	952.62964	1668.41724	-1244.70398	506.44305	1667.65442	
10	0.045	-576.34320	2754.88550	1664.22705	-603.89783	2305.64673	1657.82153	-637.88440	1851.81226	1654.49707	-660.48743	1349.60327	1654.43140	-689.76135	902.96869	1658.46033	-713.77539	455.06308	1664.10229	-1113.51428	2808.13843	1664.66040	-1140.76563	2356.51489	1667.94470	-1171.24585	1906.05249	1668.93262	-1199.01685	1404.27332	1669.25964	-1226.83130	952.62073	1668.40479	-1244.70703	506.45721	1667.63586	
11	0.050	-576.34406	2754.89478	1664.22913	-603.89038	2305.64600	1657.82788	-637.90417	1851.79944	1654.49438	-660.48224	1349.60034	1654.41968	-689.77258	902.96851	1658.46777	-713.75830	455.06781	1664.11499	-1113.47791	2808.17773	1664.65906	-1140.76465	2356.50269	1667.94348	-1171.26721	1906.05432	1668.92615	-1198.99341	1404.29700	1669.26672	-1226.82910	952.64795	1668.40393	-1244.71106	506.45322	1667.65173	
12	0.055	-576.35840	2754.90894	1664.22632	-603.87939	2305.63086	1657.83069	-637.90240	1851.82288	1654.50122	-660.47955	1349.61865	1654.44165	-689.78186	902.99683	1658.46411	-713.78894	455.06946	1664.10828	-1113.51599	2808.17798	1664.65662	-1140.77185	2356.50220	1667.94336	-1171.28638	1906.03418	1668.91907	-1198.98047	1404.28455	1669.27271	-1226.82849	952.64294	1668.40820	-1244.69690	506.45505	1667.65747	
13	0.060	-576.35504	2754.90479	1664.23926	-603.87067	2305.66064	1657.83777	-637.92163	1851.83362	1654.49829	-660.46790	1349.60181	1654.44373	-689.77960	902.97253	1658.47693	-713.77570	455.06708	1664.12231	-1113.49451	2808.15356	1664.66528	-1140.77246	2356.51123	1667.94800	-1171.26257	1906.02393	1668.92725	-1199.00269	1404.29822	1669.25830	-1226.83423	952.62567	1668.41577	-1244.69849	506.44937	1667.64795	
14	0.065	-576.35803	2754.88965	1664.23206	-603.87036	2305.67749	1657.82007	-637.90393	1851.81116	1654.50293	-660.48083	1349.61670	1654.43774	-689.77582	902.99249	1658.46606	-713.77899	455.06543	1664.12354	-1113.48853	2808.14111	1664.65369	-1140.76208	2356.49561	1667.93665	-1171.28467	1906.03784	1668.91382	-1198.98889	1404.28589	1669.25073	-1226.83826	952.63092	1668.40710	-1244.71265	506.47144	1667.65173	
15	0.070	-576.33392	2754.90308	1664.22424	-603.89148	2305.62891	1657.82251	-637.91138	1851.80054	1654.50842	-660.49939	1349.61829	1654.41443	-689.78162	902.97980	1658.46948	-713.76758	455.07254	1664.11401	-1113.52747	2808.16357	1664.67651	-1140.77222	2356.50562	1667.96252	-1171.27771	1906.02698	1668.91931	-1198.99255	1404.28760	1669.26196	-1226.83105	952.63336	1668.41260	-1244.70837	506.44656	1667.65808	
16	0.075	-576.34631	2754.90161	1664.24463	-603.86859	2305.64380	1657.81067	-637.88654	1851.81604	1654.49536	-660.49066	1349.62415	1654.42102	-689.75983	902.96387	1658.45752	-713.77130	455.06216	1664.11694	-1113.48792	2808.15845	1664.65710	-1140.76318	2356.49658	1667.91577	-1171.26392	1906.03320	1668.90918	-1199.00183	1404.29858	1669.24902	-1226.81799	952.63336	1668.41797	-1244.71606	506.45871	1667.66052	
17	0.080	-576.35236	2754.92773	1664.22681	-603.89648	2305.63110	1657.82031	-637.90808	1851.82190	1654.49377	-660.47125	1349.60620	1654.42346	-689.77771	902.96576	1658.46155	-713.77472	455.08560	1664.10864	-1113.50818	2808.15405	1664.65747	-1140.77271	2356.49365	1667.93445	-1171.28101	1906.04395	1668.92236	-1198.99194	1404.29211	1669.25659	-1226.82324	952.64465	1668.41675	-1244.71655	506.45584	1667.64685	
18	0.085	-576.34064	2754.91040	1664.23975	-603.89276	2305.62646	1657.80249	-637.90430	1851.80750	1654.48792	-660.49323	1349.60486	1654.41882	-689.77777	902.99683	1658.47778	-713.76648	455.07056	1664.11060	-1113.51697	2808.15723	1664.66504	-1140.76672	2356.48901	1667.94751	-1171.28735	1906.03088	1668.92615	-1198.99866	1404.29163	1669.24634	-1226.59485	952.67200	1668.37573	-1244.69104	506.43564	1667.64453	
19	0.090	-576.35175	2754.90674	1664.23218	-603.91553	2305.64136	1657.83057	-637.88171	1851.84827	1654.49341	-660.45532	1349.60474	1654.42590	-689.76617	902.97107	1658.46509	-713.77130	455.05994	1664.12085	-1113.51428	2808.15649	1664.66760	-1140.77087	2356.50098	1667.95325	-1171.26221	1906.02576	1668.93005	-1198.98206	1404.29968	1669.25623	-1226.31494	952.71979	1668.41223	-1244.70007	506.46515	1667.65710	
20	0.095	-576.33423	2754.88281	1664.22986	-603.90265	2305.65601	1657.83545	-637.91107	1851.82568	1654.49463	-660.49280	1349.61584	1654.42102	-689.78229	902.95160	1658.45667	-713.77148	455.08167	1664.11072	-1113.50537	2808.15161	1664.66553	-1140.77283	2356.50806	1667.94031	-1171.27332	1906.02637	1668.92542	-1198.99146	1404.28674	1669.25012	-1226.83228	952.62939	1668.40881	-1244.68970	506.45123	1667.65674	
21	0.100	-576.35443	2754.91772	1664.23608	-603.88330	2305.63135	1657.80078	-637.90155	1851.82874	1654.49634	-660.48395	1349.60364	1654.42981	-689.76300	902.97736	1658.47729	-713.78113	455.08963	1664.10925	-1113.50049	2808.15552	1664.65259	-1140.77991	2356.49463	1667.95728	-1171.28003	1906.03345	1668.92017	-1199.00183	1404.29370	1669.25452	-1226.83020	952.62451	1668.40894	-1244.69873	506.47122	1667.65344	
22	0.105	-576.33618	2754.89697	1664.23303	-603.88757	2305.63110	1657.81604	-637.91193	1851.78479	1654.49194	-660.47351	1349.59326	1654.42261	-689.76697	902.96686	1658.46252	-713.78412	455.06766	1664.12244	-1113.50525	2808.16797	1664.65088	-1140.76929	2356.51001	1667.93799	-1171.28101	1906.03882	1668.92249	-1198.99719	1404.29150	1669.26538	-1226.83167	952.64374	1668.40674	-1244.68835	506.46317	1667.65271	
23	0.110	-576.34985	2754.91016	1664.23816	-603.89240	2305.63965	1657.79907	-637.88367	1851.82397	1654.50354	-660.48041	1349.60266	1654.42700	-689.77167	902.97913	1658.46606	-713.76910	455.06070	1664.12427	-1113.50403	2808.15356	1664.65918	-1140.77771	2356.51929	1667.93665	-1171.25806	1906.03223	1668.91553	-1198.99048	1404.28772	1669.25403	-1226.82605	952.63104	1668.40247	-1244.69482	506.44833	1667.66309	
24	0.115	-576.35046	2754.92334	1664.24121	-603.87299	2305.62964	1657.83044	-637.88654	1851.80383	1654.49097	-660.49841	1349.62036	1654.42700	-689.75458	902.97864	1658.47461	-713.77649	455.05203	1664.11536	-1113.49866	2808.16284	1664.66272	-1140.77100	2356.51758	1667.94922	-1171.28406	1906.04309	1668.91150	-1199.01355	1404.29150	1669.25073	-1226.83521	952.64612	1668.41040	-1244.71692	506.47443	1667.65271	
